<svg xmlns="http://www.w3.org/2000/svg" xmlns:xlink="http://www.w3.org/1999/xlink" width="235.634" height="62.379" viewBox="0 0 235.634 62.379">
  <defs>
    <clipPath id="clip-path">
      <rect id="Rectangle_6" data-name="Rectangle 6" width="235.634" height="62.379" fill="none"/>
    </clipPath>
  </defs>
  <g id="Group_34" data-name="Group 34" transform="translate(0 0)">
    <g id="Group_5" data-name="Group 5" transform="translate(0 0)" clip-path="url(#clip-path)">
      <path id="Path_5" data-name="Path 5" d="M61.155,30.84c0,10.222-.786,18.87-1.659,23.064-1.224,5.678-3.058,6.9-9.786,7.6-4.979.524-13.366.874-19.045.874S16.6,62.029,11.619,61.5c-6.726-.7-8.474-1.922-9.785-7.6C.874,49.71,0,41.411,0,31.19S.874,12.669,1.834,8.475c1.311-5.94,3.407-6.9,9.785-7.6C16.25.35,25.336,0,30.665,0S45.081.35,49.71.874c6.727.7,8.562,2.009,9.786,7.6A87.354,87.354,0,0,1,60.981,20.88c0,1.66-.175,2.184-1.573,2.272-2.272.174-8.474.174-11.619.174s-9.349,0-11.621-.174c-1.4-.088-1.572-.35-1.66-1.4-.086-.961-.086-3.058-.262-4.281-.086-.874-.348-1.223-1.4-1.4a13.719,13.719,0,0,0-4.368,0c-.874.175-1.31.437-1.4,1.4-.262,3.494-.262,8.562-.262,13.717,0,4.629,0,10.659.262,14.59.088,1.048.524,1.31,1.4,1.4a15.185,15.185,0,0,0,2.272.174,22.457,22.457,0,0,0,2.707-.174c.962-.176,1.31-.525,1.4-1.4.088-1.311.174-2.971.174-4.543-3.493-.088-4.28-.35-4.367-1.747-.088-1.572-.088-3.494-.088-4.368,0-.961,0-3.233.088-4.281.087-1.223.524-1.66,1.747-1.747,1.748-.087,11.358-.175,13.541-.175s11.708,0,13.455.175c1.223.087,1.747.612,1.747,1.747" transform="translate(0 0)" fill="#2e2e2d"/>
      <path id="Path_6" data-name="Path 6" d="M138.263,59.463a1.717,1.717,0,0,1-.436,1.31,3.625,3.625,0,0,1-2.446.786c-2.446.175-6.377.262-9.785.262s-7.165,0-9.873-.262c-3.319-.349-4.281-1.136-5.416-4.28l-5.066-14.24h-3.058v15.2c0,2.184-.873,2.971-2.709,3.146-1.746.174-5.765.349-10.221.349-4.281,0-8.125-.175-9.873-.349-1.834-.175-2.708-.962-2.8-3.146-.262-7.076-.262-16.686-.262-27.083,0-10.222,0-19.919.262-27,.088-2.183.962-2.97,2.8-3.145C83.4.666,96.241.579,106.026.579c6.727,0,14.328.174,19.308.611,10.309.874,12.143,4.455,12.143,19.4,0,13.367-1.66,16.337-8.387,17.822l8.213,17.56a7.847,7.847,0,0,1,.96,3.5M111.005,25.74a17.6,17.6,0,0,0,.35-4.019,17.6,17.6,0,0,0-.35-4.018c-.262-1.4-.524-1.747-1.834-1.747h-6.2c-.611,0-.873.524-.873,1.747V25.74c0,1.31.262,1.747.873,1.747h6.2c1.31,0,1.572-.349,1.834-1.747" transform="translate(-7.124 -0.054)" fill="#2e2e2d"/>
      <path id="Path_7" data-name="Path 7" d="M176.868,1.024c1.834.174,2.708.961,2.8,3.145.262,7.076.262,16.861.262,27.083,0,10.4,0,20.007-.262,27.083-.088,2.185-.962,2.971-2.8,3.145-1.747.176-6.552.35-10.921.35s-9.173-.174-10.921-.35c-1.834-.174-2.708-.96-2.8-3.145-.262-7.076-.262-16.686-.262-27.083,0-10.222,0-20.006.262-27.083.087-2.184.961-2.971,2.8-3.145,1.748-.175,6.553-.35,10.921-.35s9.174.175,10.921.35" transform="translate(-14.186 -0.063)" fill="#2e2e2d"/>
      <path id="Path_8" data-name="Path 8" d="M216.293,61.48c-1.746.175-6.027.35-10.484.35-4.281,0-8.561-.175-10.309-.35-1.835-.175-2.709-.961-2.8-3.145-.262-7.076-.262-16.686-.262-27.083,0-10.222,0-19.919.262-27,.086-2.184.96-3.058,2.8-3.145,4.018-.262,16.686-.437,27.345-.437,5.853,0,13.629.175,18.609.612C251.763,2.159,253.6,5.13,253.6,21.9c0,16.076-1.922,19.657-12.144,20.531-4.98.436-12.756.7-18.609.7h-2.969c-.612,0-.874.262-.874.873V58.335c0,2.184-.874,2.97-2.709,3.145m2.621-43.77V26.1c0,1.311.262,1.748.874,1.748h5.5c1.31,0,1.573-.35,1.835-1.748a19.272,19.272,0,0,0,.349-4.193,19.278,19.278,0,0,0-.349-4.193c-.262-1.4-.525-1.747-1.835-1.747h-5.5c-.612,0-.874.524-.874,1.747" transform="translate(-17.964 -0.063)" fill="#2e2e2d"/>
      <path id="Path_9" data-name="Path 9" d="M252.988,56.6c1.278.111,2.009.405,2.1,1.142a26.28,26.28,0,0,1,.184,3.687,26.28,26.28,0,0,1-.184,3.687c-.092.736-.822,1.032-2.1,1.141-1.189.111-6.3.148-10.14.148s-8.952-.037-10.139-.148c-1.279-.11-2.01-.405-2.1-1.141a26.4,26.4,0,0,1-.183-3.687,26.4,26.4,0,0,1,.183-3.687c.092-.737.822-1.032,2.1-1.142,1.187-.111,6.3-.148,10.139-.148s8.951.037,10.14.148" transform="translate(-21.509 -5.269)" fill="#2e2e2d"/>
    </g>
  </g>
</svg>
